<svg width="23" height="22" viewBox="0 0 23 22" fill="none" xmlns="http://www.w3.org/2000/svg">
<path d="M20.9091 15.4V2.2H2.09091V15.4H20.9091ZM20.9091 0C21.4636 0 21.9955 0.231785 22.3876 0.644365C22.7797 1.05694 23 1.61652 23 2.2V15.4C23 15.9835 22.7797 16.5431 22.3876 16.9556C21.9955 17.3682 21.4636 17.6 20.9091 17.6H13.5909V19.8H15.6818V22H7.31818V19.8H9.40909V17.6H2.09091C1.53637 17.6 1.00453 17.3682 0.612413 16.9556C0.220292 16.5431 0 15.9835 0 15.4V2.2C0 0.979 0.930454 0 2.09091 0H20.9091ZM4.18182 4.4H13.5909V9.9H4.18182V4.4ZM14.6364 4.4H18.8182V6.6H14.6364V4.4ZM18.8182 7.7V13.2H14.6364V7.7H18.8182ZM4.18182 11H8.36364V13.2H4.18182V11ZM9.40909 11H13.5909V13.2H9.40909V11Z" fill="#FAF9F9"/>
</svg>
