<svg width="22" height="28" viewBox="0 0 22 28" fill="none" xmlns="http://www.w3.org/2000/svg">
<path d="M6.67511 4.0686H3.83756C3.08499 4.0686 2.36325 4.36756 1.8311 4.8997C1.29896 5.43185 1 6.15359 1 6.90616V23.9315C1 24.6841 1.29896 25.4058 1.8311 25.938C2.36325 26.4701 3.08499 26.7691 3.83756 26.7691H18.0253C18.7779 26.7691 19.4997 26.4701 20.0318 25.938C20.5639 25.4058 20.8629 24.6841 20.8629 23.9315V6.90616C20.8629 6.15359 20.5639 5.43185 20.0318 4.8997C19.4997 4.36756 18.7779 4.0686 18.0253 4.0686H15.1878" stroke="#FAF9F9" stroke-width="2" stroke-linecap="round" stroke-linejoin="round"/>
<path d="M12.3504 1.23096H9.51285C7.94571 1.23096 6.67529 2.50137 6.67529 4.06851C6.67529 5.63565 7.94571 6.90607 9.51285 6.90607H12.3504C13.9175 6.90607 15.188 5.63565 15.188 4.06851C15.188 2.50137 13.9175 1.23096 12.3504 1.23096Z" stroke="#FAF9F9" stroke-width="2" stroke-linecap="round" stroke-linejoin="round"/>
<path d="M6.67529 21.0939V14M10.9316 21.0939V19.6751M15.188 21.0939V16.8376" stroke="#FAF9F9" stroke-width="2" stroke-linecap="round" stroke-linejoin="round"/>
</svg>
